<?xml version="1.0" encoding="UTF-8"?><svg xmlns="http://www.w3.org/2000/svg" viewBox="0 0 45 45" width="45" height="45"><defs><linearGradient id="grad-marble-w" x1="0" y1="0" x2="1" y2="1"><stop offset="0%" stop-color="#fff"/><stop offset="30%" stop-color="#eee"/><stop offset="70%" stop-color="#ddd"/><stop offset="100%" stop-color="#fff"/></linearGradient><linearGradient id="grad-marble-b" x1="0" y1="0" x2="1" y2="1"><stop offset="0%" stop-color="#333"/><stop offset="50%" stop-color="#000"/><stop offset="100%" stop-color="#333"/></linearGradient></defs><g fill="url(#grad-marble-b)" stroke="#888" stroke-width="0.8" stroke-linecap="round" stroke-linejoin="round"><path d="M 9,36 c 3.39,-0.47 8.5,-1.5 13.5,-1.5 5,0 10.11,1.03 13.5,1.5 1,0.14 1,2 0,2 -3.39,-0.47 -8.5,-1.5 -13.5,-1.5 -5,0 -10.11,1.03 -13.5,1.5 -1,0.14 -1,2 0,2 z M 15,32 c 2.5,2.5 12.5,2.5 15,0 0.5,-1.5 0,-2 0,-2 0,-2.5 -2.5,-4 -2.5,-4 5.5,-1.5 6,-11.5 -5,-15.5 -11,4 -10.5,14 -5,15.5 0,0 -2.5,1.5 -2.5,4 0,0 -0.5,0.5 0,2 z M 25,8 a 2.5,2.5 0 1 1 -5,0 2.5,2.5 0 1 1 5,0 z" /></g></svg>