<svg xmlns="http://www.w3.org/2000/svg" width="45" height="45" viewBox="0 0 45 45"><g fill="#ffffff" stroke="#000000" stroke-width="1.5" stroke-linecap="round" stroke-linejoin="round"><path d="M9,26c8.5-1.5,21-1.5,27,0l2-12c0,0,1,0,1,1s-1.5,1-1.5,1.5c0,1,1.5,1,1.5,2s-1.5,1-1.5,1.5c0,1,1.5,1,1.5,2s-1.5,1-1.5,2c0,1,1.5,1,1.5,1s-1.5,1-1.5,1.5c0,1,1.5,1,1.5,1" /><path d="M9,26c0,0,1.5-4,3-4s2,4,2,4" /><path d="M14,26c0,0,1.5-4,3-4s2,4,2,4" /><path d="M19,26c0,0,1.5-4,3-4s2,4,2,4" /><path d="M24,26c0,0,1.5-4,3-4s2,4,2,4" /><path d="M29,26c0,0,1.5-4,3-4s2,4,2,4" /><path d="M11.5,30c5.5-3,15.5-3,21,0" /><path d="M11.5,33.5c5.5-3,15.5-3,21,0" /><path d="M11.5,37c5.5-3,15.5-3,21,0" /></g></svg>