<svg xmlns="http://www.w3.org/2000/svg" width="45" height="45" viewBox="0 0 45 45"><g fill="#262421" stroke="#ffffff" stroke-width="1.5" stroke-linecap="round" stroke-linejoin="round"><path d="M22.5,11.63V6M20,8h5" /><path d="M22.5,25s4.5-7.5,3-10c-1.5-2.5-6-2.5-6-2.5s-4.5,0-6,2.5c-1.5,2.5,3,10,3,10" /><path d="M11.5,37c5.5,3.5,15.5,3.5,21,0v-7s9,0,9-7c0-2-1-4-3-4h-2.5s2.5-3,2.5-5.5c0-3-2.5-5.5-5.5-5.5s-5.5,2.5-5.5,5.5c0,2.5,2.5,5.5,2.5,5.5H24.5V11.63c2-0.5,3-2.5,3-4.13c0-2.5-2-4.5-4.5-4.5s-4.5,2-4.5,4.5c0,1.63,1,3.63,3,4.13V13.5H18.5s2.5-3,2.5-5.5c0-3-2.5-5.5-5.5-5.5s-5.5,2.5-5.5,5.5c0,2.5,2.5,5.5,2.5,5.5H10c-2,0-3,2-3,4c0,7,9,7,9,7v7" /><path d="M11.5,30c5.5-3,15.5-3,21,0" /><path d="M11.5,33.5c5.5-3,15.5-3,21,0" /><path d="M11.5,37c5.5-3,15.5-3,21,0" /></g></svg>