<?xml version="1.0" encoding="UTF-8"?><svg xmlns="http://www.w3.org/2000/svg" viewBox="0 0 45 45" width="45" height="45"><defs><linearGradient id="grad-wood-w" x1="0" y1="0" x2="1" y2="1"><stop offset="0%" stop-color="#eecd9d"/><stop offset="100%" stop-color="#b58863"/></linearGradient><linearGradient id="grad-wood-b" x1="0" y1="0" x2="1" y2="1"><stop offset="0%" stop-color="#8b4a1c"/><stop offset="100%" stop-color="#2a1806"/></linearGradient></defs><g fill="url(#grad-wood-b)" stroke="#2a1806" stroke-width="1.2" stroke-linecap="round" stroke-linejoin="round"><path d="M 22,10 c 10.5,1 16.5,8 16,21 -5,2 -5,-2 -5,-2 -9,5 -14.5,-1 -14.5,-1 1,3.5 -1,8 -1,8 -1,1 -1,1 h -5 c -1,0 -1,-1 -1,-1 0,-3 3,-9 3,-9 0,0 -4,1 -4,1 0,0 0,-15 12,-18 z M 24,18 a 2,2 0 1 1 -4,0 2,2 0 1 1 4,0 z" /></g></svg>