<?xml version="1.0" encoding="UTF-8"?><svg xmlns="http://www.w3.org/2000/svg" viewBox="0 0 45 45" width="45" height="45"><defs><linearGradient id="grad-wood-w" x1="0" y1="0" x2="1" y2="1"><stop offset="0%" stop-color="#eecd9d"/><stop offset="100%" stop-color="#b58863"/></linearGradient><linearGradient id="grad-wood-b" x1="0" y1="0" x2="1" y2="1"><stop offset="0%" stop-color="#8b4a1c"/><stop offset="100%" stop-color="#2a1806"/></linearGradient></defs><g fill="url(#grad-wood-w)" stroke="#5d3a1a" stroke-width="1.2" stroke-linecap="round" stroke-linejoin="round"><path d="M 22.5,9 a 5,5 0 1 1 -10,0 5,5 0 1 1 10,0 z M 22.5,14 c -2.52,0 -5.35,0.54 -7,2.5 -1.65,1.96 -1,7.5 -1,7.5 0,0 2,2.5 2,5.5 v 0.5 c 0,0 0,0.5 -1,1 -1,0.5 -3.5,1.5 -3.5,2.5 0,1 1,2 1,2 3.39,-0.47 8.5,-1.5 13.5,-1.5 5,0 10.11,1.03 13.5,1.5 1,0.14 1,2 0,2 -3.39,-0.47 -8.5,-1.5 -13.5,-1.5 -5,0 -10.11,1.03 -13.5,1.5 -1,0.14 -1,2 0,2 z" /></g></svg>