<?xml version="1.0" encoding="UTF-8"?><svg xmlns="http://www.w3.org/2000/svg" viewBox="0 0 45 45" width="45" height="45"><defs><radialGradient id="glass-shine" cx="30%" cy="30%" r="50%"><stop offset="0%" stop-color="#fff" stop-opacity="0.8"/><stop offset="100%" stop-color="#fff" stop-opacity="0"/></radialGradient></defs><g fill="rgba(0,0,0,0.7)" stroke="#ffffff" stroke-width="1.5" stroke-linecap="round" stroke-linejoin="round"><path d="M 22,10 c 10.5,1 16.5,8 16,21 -5,2 -5,-2 -5,-2 -9,5 -14.5,-1 -14.5,-1 1,3.5 -1,8 -1,8 -1,1 -1,1 h -5 c -1,0 -1,-1 -1,-1 0,-3 3,-9 3,-9 0,0 -4,1 -4,1 0,0 0,-15 12,-18 z M 24,18 a 2,2 0 1 1 -4,0 2,2 0 1 1 4,0 z" /><circle cx="15" cy="15" r="10" fill="url(#glass-shine)" opacity="0.3"/></g></svg>