<svg xmlns="http://www.w3.org/2000/svg" width="45" height="45" viewBox="0 0 45 45"><g fill="#262421" stroke="#ffffff" stroke-width="1.5" stroke-linecap="round" stroke-linejoin="round"><path d="M22,9c-2.21,0-4,1.79-4,4c0,0.89,0.29,1.71,0.78,2.38C17.33,16.5,16,18.59,16,21c0,2.03,0.94,3.84,2.41,5.03C15.41,27.09,11,31.58,11,37h23c0-5.42-4.41-9.91-7.41-10.97C28.06,24.84,29,23.03,29,21c0-2.41-1.33-4.5-2.78-5.62c0.49-0.67,0.78-1.49,0.78-2.38c0-2.21-1.79-4-4-4z" /><path d="M11,37c5.5-3,15.5-3,21,0" /></g></svg>