<?xml version="1.0" encoding="UTF-8"?><svg xmlns="http://www.w3.org/2000/svg" viewBox="0 0 45 45" width="45" height="45"><defs><radialGradient id="glass-shine" cx="30%" cy="30%" r="50%"><stop offset="0%" stop-color="#fff" stop-opacity="0.8"/><stop offset="100%" stop-color="#fff" stop-opacity="0"/></radialGradient></defs><g fill="rgba(0,0,0,0.7)" stroke="#ffffff" stroke-width="1.5" stroke-linecap="round" stroke-linejoin="round"><path d="M 22.5,9 a 5,5 0 1 1 -10,0 5,5 0 1 1 10,0 z M 22.5,14 c -2.52,0 -5.35,0.54 -7,2.5 -1.65,1.96 -1,7.5 -1,7.5 0,0 2,2.5 2,5.5 v 0.5 c 0,0 0,0.5 -1,1 -1,0.5 -3.5,1.5 -3.5,2.5 0,1 1,2 1,2 3.39,-0.47 8.5,-1.5 13.5,-1.5 5,0 10.11,1.03 13.5,1.5 1,0.14 1,2 0,2 -3.39,-0.47 -8.5,-1.5 -13.5,-1.5 -5,0 -10.11,1.03 -13.5,1.5 -1,0.14 -1,2 0,2 z" /><circle cx="15" cy="15" r="10" fill="url(#glass-shine)" opacity="0.3"/></g></svg>