<?xml version="1.0" encoding="UTF-8"?><svg xmlns="http://www.w3.org/2000/svg" viewBox="0 0 45 45" width="45" height="45"><defs><radialGradient id="glass-shine" cx="30%" cy="30%" r="50%"><stop offset="0%" stop-color="#fff" stop-opacity="0.8"/><stop offset="100%" stop-color="#fff" stop-opacity="0"/></radialGradient></defs><g fill="rgba(0,0,0,0.7)" stroke="#ffffff" stroke-width="1.5" stroke-linecap="round" stroke-linejoin="round"><path d="M 9,36 c 3.39,-0.47 8.5,-1.5 13.5,-1.5 5,0 10.11,1.03 13.5,1.5 1,0.14 1,2 0,2 -3.39,-0.47 -8.5,-1.5 -13.5,-1.5 -5,0 -10.11,1.03 -13.5,1.5 -1,0.14 -1,2 0,2 z M 11,14 V 9 h 4 v 2 h 5 V 9 h 5 v 2 h 5 V 9 h 4 v 5 M 12,14 l 1.5,12 h 18 L 33,14 H 12 z M 11,26 c 0,2 1.5,2 2.5,4 1,2 1,1 1,1 H 30.5 c 0,0 0,1 1,-1 1,-2 2.5,-2 2.5,-4" /><circle cx="15" cy="15" r="10" fill="url(#glass-shine)" opacity="0.3"/></g></svg>