<svg xmlns="http://www.w3.org/2000/svg" width="45" height="45" viewBox="0 0 45 45"><g fill="#262421" stroke="#ffffff" stroke-width="1.5" stroke-linecap="round" stroke-linejoin="round"><path d="M9,36c3.39,0,6.78,0,10.17,0,3.39,0,6.78,0,10.17,0V33H9v3z" /><path d="M15,32c2.5,2.5,12.5,2.5,15,0,0.5-1.5,0-2,0-2,0-2.5-2.5-4-2.5-4,5.5-1.5,6-11.5-5-15.5-11,4-10.5,14-5,15.5,0,0,2.5,1.5,2.5,4,0,0,0.5,0.5,0,2z" /><path d="M25,8a2.5,2.5 0 1,1 -5,0 2.5,2.5 0 1,1 5,0z" /><path d="M17.5,26h10" /><path d="M15,30c2.5-3,12.5-3,15,0" /><path d="M15,33c2.5-3,12.5-3,15,0" /></g></svg>