<svg xmlns="http://www.w3.org/2000/svg" viewBox="0 0 45 45"><g fill="none" fill-rule="evenodd" stroke="#000" stroke-width="1.5" stroke-linecap="round" stroke-linejoin="round"><path d="M22.5 11.63V6M20 8h5M22.5 25s4.5-7.5 3-10c-1.5-2.5-6-2.5-6 0 0 2.5 3 10 3 10z"/><path d="M11.5 37c5.5 3.5 15.5 3.5 21 0v-7s9-4.5 6-10.5c-4-1-1-1.5-6-2V13s1.5-3.5-3-3.5c-3 0-3 2.5-3 2.5s-1.5-2.5-3-2.5c-3 0-3 2.5-3 2.5s-1.5-2.5-3-2.5c-4.5 0-3 3.5-3 3.5v4.5c-5 .5-2 1-6 2-3 6 6 10.5 6 10.5v7z" fill="#000"/><path d="M11.5 30c5.5-3 15.5-3 21 0m-21 3.5c5.5-3 15.5-3 21 0m-21 3.5c5.5-3 15.5-3 21 0" stroke="#fff" stroke-width="1"/></g></svg>