<svg xmlns="http://www.w3.org/2000/svg" viewBox="0 0 45 45"><g fill="none" fill-rule="evenodd" stroke="#000" stroke-width="1.5" stroke-linecap="round" stroke-linejoin="round"><path d="M22 10c10.5 1 16.5 8 16 21-5 2-5-2-5-2-9 5-14.5-1-14.5-1 1 3.5-1 8-1 8-1 1-1 1h-5c-1 0-1-1-1-1 0-3 3-9 3-9 0 0-4 1-4 1 0 0 0-15 12-18z" fill="#000"/><path d="M24 18a2 2 0 1 1-4 0 2 2 0 0 1 4 0z" fill="#000" stroke="#fff" stroke-width="1"/><path d="M9.5 25.5A.5.5 0 1 1 9 25a.5.5 0 0 1 .5.5z" fill="#fff" stroke="none"/><path d="M15 15.5c4.5 2.5 4 4.5 4 4.5" fill="none" stroke="#fff" stroke-width="1"/></g></svg>