<svg xmlns="http://www.w3.org/2000/svg" viewBox="0 0 45 45"><g fill="none" fill-rule="evenodd" stroke="#000" stroke-width="1.5" stroke-linecap="round" stroke-linejoin="round"><path d="M8 12a2 2 0 1 1-4 0 2 2 0 0 1 4 0zM24.5 7.5a2 2 0 1 1-4 0 2 2 0 0 1 4 0zM41 12a2 2 0 1 1-4 0 2 2 0 0 1 4 0zM11 20c8.5-3 21-3 23 0m2 4c-5-1-25-1-30 0l-2-7c7-5 24-5 34 0l-2 7z"/><path d="M9 26c8.5-1.5 21-1.5 27 0l2-12c-7 2.5-18 2.5-25 0l-4 12zm0 0c0 2 1.5 2 2.5 4 1 2 1 1 1 1H31.5s0 1 1-1c1-2 2.5-2 2.5-4" fill="#000"/><path d="M11.5 30c3.5-1 18.5-1 22 0m-22 3.5c3.5-1 18.5-1 22 0m-22 3.5c3.5-1 18.5-1 22 0" stroke="#fff" stroke-width="1"/></g></svg>