<?xml version="1.0" encoding="UTF-8"?>
<svg xmlns="http://www.w3.org/2000/svg" viewBox="0 0 45 45" width="45" height="45">
  <defs><filter id="soft-shadow" x="-20%" y="-20%" width="140%" height="140%"><feGaussianBlur in="SourceAlpha" stdDeviation="0.8" /><feOffset dx="0.5" dy="0.5" result="offsetblur" /><feComponentTransfer><feFuncA type="linear" slope="0.3"/></feComponentTransfer><feMerge><feMergeNode /><feMergeNode in="SourceGraphic" /></feMerge></filter></defs>
  <g fill="#ffffff" stroke="#999999" stroke-width="1.5" stroke-linecap="round" stroke-linejoin="round" filter="url(#soft-shadow)">
    <path d="M 22.5,11.63 V 6 M 20,8 h 5 M 22.5,25 s 4.5,-7.5 3,-10 c -1.5,-2.5 -6,-2.5 -6,0 0,2.5 3,10 3,10 z M 9,36 c 3.39,-0.47 8.5,-1.5 13.5,-1.5 5,0 10.11,1.03 13.5,1.5 1,0.14 1,2 0,2 -3.39,-0.47 -8.5,-1.5 -13.5,-1.5 -5,0 -10.11,1.03 -13.5,1.5 -1,0.14 -1,2 0,2 z M 11.5,30 c 3.5,-1 8,-1.5 11,-1.5 3,0 7.5,0.5 11,1.5 1.5,0.43 1.5,2 0,2 -3.39,-1 -8,-1.5 -11,-1.5 -3,0 -7.5,0.5 -11,1.5 -1.5,0.43 -1.5,2 0,2 z M 11.5,33 c 3.5,-1 8,-1.5 11,-1.5 3,0 7.5,0.5 11,1.5 1.5,0.43 1.5,2 0,2 -3.5,-1 -8,-1.5 -11,-1.5 -3,0 -7.5,0.5 -11,1.5 -1.5,0.43 -1.5,2 0,2 z" />
  </g>
</svg>