<?xml version="1.0" encoding="UTF-8"?><svg xmlns="http://www.w3.org/2000/svg" viewBox="0 0 45 45" width="45" height="45"><defs></defs><g fill="#000000" stroke="#FFFFFF" stroke-width="2.5" stroke-linecap="round" stroke-linejoin="round"><path d="M 9,26 c 8.5,-1.5 21,-1.5 27,0 l 2,-12 c -7,2.5 -18,2.5 -25,0 l -4,12 z M 9,26 c 0,2 1.5,2 2.5,4 1,2 1,1 1,1 H 31.5 c 0,0 0,1 1,-1 1,-2 2.5,-2 2.5,-4 M 11.5,30 c 3.5,-1 8,-1.5 11,-1.5 3,0 7.5,0.5 11,1.5 1.5,0.43 1.5,2 0,2 -3.5,-1 -8,-1.5 -11,-1.5 -3,0 -7.5,0.5 -11,1.5 -1.5,0.43 -1.5,2 0,2 z M 9,36 c 3.39,-0.47 8.5,-1.5 13.5,-1.5 5,0 10.11,1.03 13.5,1.5 1,0.14 1,2 0,2 -3.39,-0.47 -8.5,-1.5 -13.5,-1.5 -5,0 -10.11,1.03 -13.5,1.5 -1,0.14 -1,2 0,2 z" /></g></svg>