<?xml version="1.0" encoding="UTF-8"?><svg xmlns="http://www.w3.org/2000/svg" viewBox="0 0 45 45" width="45" height="45"><defs></defs><g fill="#000000" stroke="#FFFFFF" stroke-width="2.5" stroke-linecap="round" stroke-linejoin="round"><path d="M 9,36 c 3.39,-0.47 8.5,-1.5 13.5,-1.5 5,0 10.11,1.03 13.5,1.5 1,0.14 1,2 0,2 -3.39,-0.47 -8.5,-1.5 -13.5,-1.5 -5,0 -10.11,1.03 -13.5,1.5 -1,0.14 -1,2 0,2 z M 11,14 V 9 h 4 v 2 h 5 V 9 h 5 v 2 h 5 V 9 h 4 v 5 M 12,14 l 1.5,12 h 18 L 33,14 H 12 z M 11,26 c 0,2 1.5,2 2.5,4 1,2 1,1 1,1 H 30.5 c 0,0 0,1 1,-1 1,-2 2.5,-2 2.5,-4" /></g></svg>